<svg xmlns="http://www.w3.org/2000/svg" xmlns:xlink="http://www.w3.org/1999/xlink" width="500" zoomAndPan="magnify" viewBox="0 0 375 374.999991" height="500" preserveAspectRatio="xMidYMid meet" version="1.0"><defs><clipPath id="90856cb176"><path d="M 191 40.390625 L 197 40.390625 L 197 49 L 191 49 Z M 191 40.390625 " clip-rule="nonzero"/></clipPath><clipPath id="46676403fe"><path d="M 309 119 L 332.25 119 L 332.25 182 L 309 182 Z M 309 119 " clip-rule="nonzero"/></clipPath><clipPath id="01e7d084bd"><path d="M 287 192 L 332.25 192 L 332.25 287 L 287 287 Z M 287 192 " clip-rule="nonzero"/></clipPath><clipPath id="e0df45eeb3"><path d="M 38.25 193 L 93 193 L 93 298 L 38.25 298 Z M 38.25 193 " clip-rule="nonzero"/></clipPath><clipPath id="0c2a4168ce"><path d="M 116.214844 310.597656 L 179.472656 310.597656 L 179.472656 334.390625 L 116.214844 334.390625 Z M 116.214844 310.597656 " clip-rule="nonzero"/></clipPath></defs><g clip-path="url(#90856cb176)"><path fill="#00d7df" d="M 196.472656 40.738281 C 194.878906 40.621094 193.289062 40.484375 191.679688 40.414062 C 191.71875 43.046875 191.773438 45.679688 191.800781 48.304688 C 193.253906 48.375 194.6875 48.5 196.125 48.613281 C 196.210938 45.984375 196.335938 43.363281 196.472656 40.738281 " fill-opacity="1" fill-rule="nonzero"/></g><path fill="#00d7df" d="M 310.246094 109.675781 C 287.929688 74.019531 250.792969 48.539062 207.507812 41.972656 C 207.378906 44.613281 207.265625 47.257812 207.179688 49.898438 C 247.84375 56.328125 282.691406 80.410156 303.65625 114.007812 C 305.839844 112.546875 308.039062 111.105469 310.246094 109.675781 " fill-opacity="1" fill-rule="nonzero"/><g clip-path="url(#46676403fe)"><path fill="#00d7df" d="M 332.453125 181.652344 C 331.578125 159.222656 325.636719 138.074219 315.777344 119.296875 C 313.558594 120.738281 311.347656 122.183594 309.152344 123.65625 C 318.222656 141.160156 323.652344 160.824219 324.519531 181.652344 L 332.453125 181.652344 " fill-opacity="1" fill-rule="nonzero"/></g><g clip-path="url(#01e7d084bd)"><path fill="#00d7df" d="M 324.574219 192.746094 C 323.296875 227 309.613281 258.128906 287.871094 281.753906 C 289.855469 283.476562 291.898438 285.140625 293.945312 286.804688 C 316.824219 261.808594 331.179688 228.917969 332.460938 192.746094 L 324.574219 192.746094 " fill-opacity="1" fill-rule="nonzero"/></g><g clip-path="url(#e0df45eeb3)"><path fill="#00d7df" d="M 87.769531 297.601562 C 89.402344 295.535156 91.058594 293.492188 92.683594 291.421875 C 65.445312 267.113281 47.769531 232.296875 46.144531 193.382812 C 43.511719 193.3125 40.882812 193.253906 38.25 193.210938 C 39.847656 234.683594 58.6875 271.796875 87.769531 297.601562 " fill-opacity="1" fill-rule="nonzero"/></g><path fill="#00d7df" d="M 96.277344 304.617188 C 99.710938 307.234375 103.261719 309.707031 106.921875 312.019531 C 108.328125 309.800781 109.742188 307.582031 111.144531 305.359375 C 107.71875 303.195312 104.394531 300.882812 101.179688 298.4375 C 99.558594 300.507812 97.90625 302.550781 96.277344 304.617188 " fill-opacity="1" fill-rule="nonzero"/><g clip-path="url(#0c2a4168ce)"><path fill="#00d7df" d="M 120.765625 310.890625 C 119.359375 313.117188 117.941406 315.339844 116.535156 317.566406 C 135.316406 327.546875 156.492188 333.609375 178.980469 334.570312 C 179.035156 331.945312 179.15625 329.316406 179.355469 326.691406 C 158.277344 325.796875 138.417969 320.167969 120.765625 310.890625 " fill-opacity="1" fill-rule="nonzero"/></g><path fill="#00d7df" d="M 78.835938 117.527344 L 71.09375 112.164062 C 70.648438 112.8125 70.203125 113.46875 69.769531 114.125 L 77.554688 119.523438 C 77.976562 118.851562 78.402344 118.183594 78.835938 117.527344 " fill-opacity="1" fill-rule="nonzero"/><path fill="#00d7df" d="M 96.890625 95.792969 L 90.648438 89.15625 C 90.070312 89.703125 89.507812 90.253906 88.945312 90.804688 L 95.179688 97.429688 C 95.734375 96.871094 96.328125 96.339844 96.890625 95.792969 " fill-opacity="1" fill-rule="nonzero"/><path fill="#00d7df" d="M 119.347656 78.4375 L 114.628906 70.675781 C 113.960938 71.089844 113.296875 71.515625 112.628906 71.941406 L 117.355469 79.714844 C 118.019531 79.292969 118.671875 78.847656 119.347656 78.4375 " fill-opacity="1" fill-rule="nonzero"/><path fill="#00d7df" d="M 172.710938 60.617188 L 171.414062 50.550781 C 170.632812 50.652344 169.847656 50.757812 169.066406 50.871094 L 170.363281 60.898438 C 171.144531 60.808594 171.921875 60.695312 172.710938 60.617188 " fill-opacity="1" fill-rule="nonzero"/><path fill="#00d7df" d="M 144.949219 66.585938 L 141.8125 57.65625 C 141.066406 57.921875 140.324219 58.191406 139.582031 58.464844 L 142.707031 67.347656 C 143.449219 67.085938 144.199219 66.835938 144.949219 66.585938 " fill-opacity="1" fill-rule="nonzero"/><path fill="#00d7df" d="M 258.617188 291.75 L 264.054688 298.453125 C 264.652344 297.992188 265.234375 297.523438 265.820312 297.050781 L 260.457031 290.441406 C 259.851562 290.886719 259.230469 291.316406 258.617188 291.75 " fill-opacity="1" fill-rule="nonzero"/><path fill="#00d7df" d="M 235.773438 304.582031 L 240.246094 313.304688 C 240.921875 312.980469 241.59375 312.648438 242.265625 312.308594 L 237.828125 303.65625 C 237.140625 303.964844 236.46875 304.285156 235.773438 304.582031 " fill-opacity="1" fill-rule="nonzero"/><path fill="#00d7df" d="M 210.890625 312.425781 L 213.753906 323.019531 C 214.488281 322.832031 215.210938 322.640625 215.933594 322.445312 L 213.082031 311.925781 C 212.351562 312.089844 211.625 312.277344 210.890625 312.425781 " fill-opacity="1" fill-rule="nonzero"/><path fill="#00d7df" d="M 59.042969 170.25 L 48.308594 168.28125 C 48.175781 169.0625 48.035156 169.839844 47.90625 170.617188 L 58.742188 172.605469 C 58.832031 171.816406 58.9375 171.035156 59.042969 170.25 " fill-opacity="1" fill-rule="nonzero"/><path fill="#00d7df" d="M 66.058594 142.527344 L 56.835938 138.664062 C 56.535156 139.390625 56.25 140.128906 55.964844 140.867188 L 65.234375 144.75 C 65.503906 144.003906 65.78125 143.261719 66.058594 142.527344 " fill-opacity="1" fill-rule="nonzero"/><path fill="#00d7df" d="M 271.148438 272.136719 L 270.824219 272.46875 L 288.054688 289.699219 L 287.695312 290.0625 C 260.894531 316.757812 225.308594 331.742188 187.492188 332.242188 L 186.972656 332.246094 L 187.035156 307.894531 L 185.53125 307.90625 C 153.636719 307.90625 123.582031 295.546875 100.882812 273.109375 C 78.308594 250.785156 65.308594 219.445312 65.179688 187.042969 L 64.660156 187.03125 L 40.773438 187.03125 L 40.777344 186.515625 C 41.308594 107.222656 106.246094 42.710938 185.53125 42.710938 L 186.046875 42.710938 L 186.046875 53.457031 L 186.507812 53.460938 C 188.726562 53.476562 190.9375 53.546875 193.140625 53.667969 C 193.609375 53.695312 194.078125 53.734375 194.550781 53.777344 L 196.324219 53.917969 C 197.457031 53.996094 198.585938 54.078125 199.714844 54.195312 C 200.285156 54.253906 200.851562 54.332031 201.421875 54.410156 L 203.425781 54.667969 C 204.355469 54.78125 205.289062 54.894531 206.214844 55.035156 C 206.847656 55.132812 207.488281 55.25 208.113281 55.367188 L 210.125 55.726562 C 210.964844 55.871094 211.808594 56.015625 212.644531 56.1875 C 213.300781 56.320312 213.957031 56.476562 214.609375 56.632812 L 216.53125 57.074219 C 217.351562 57.257812 218.171875 57.4375 218.988281 57.644531 C 219.648438 57.816406 220.308594 58.007812 220.972656 58.195312 L 222.894531 58.738281 C 223.671875 58.953125 224.453125 59.167969 225.226562 59.40625 C 225.894531 59.609375 226.546875 59.835938 227.207031 60.058594 L 229.128906 60.707031 C 229.878906 60.953125 230.625 61.199219 231.367188 61.46875 C 232.039062 61.710938 232.710938 61.976562 233.375 62.242188 L 235.222656 62.960938 C 235.953125 63.242188 236.675781 63.519531 237.386719 63.820312 C 238.074219 64.105469 238.75 64.414062 239.425781 64.71875 L 241.152344 65.496094 C 241.871094 65.8125 242.585938 66.132812 243.292969 66.464844 C 243.960938 66.789062 244.628906 67.125 245.285156 67.46875 L 247.042969 68.359375 C 247.71875 68.699219 248.398438 69.039062 249.066406 69.402344 C 249.730469 69.761719 250.382812 70.140625 251.039062 70.519531 L 252.664062 71.445312 C 253.347656 71.832031 254.027344 72.21875 254.703125 72.621094 C 255.339844 73.007812 255.964844 73.410156 256.597656 73.816406 L 258.226562 74.859375 C 258.882812 75.273438 259.535156 75.6875 260.179688 76.121094 C 260.835938 76.558594 261.476562 77.019531 262.113281 77.480469 L 263.652344 78.570312 C 264.269531 79.003906 264.894531 79.441406 265.503906 79.898438 C 266.144531 80.375 266.769531 80.871094 267.398438 81.367188 L 268.828125 82.488281 C 269.441406 82.96875 270.054688 83.449219 270.660156 83.949219 C 271.269531 84.449219 271.863281 84.96875 272.457031 85.488281 L 273.816406 86.664062 C 274.429688 87.191406 275.042969 87.71875 275.644531 88.265625 C 276.253906 88.820312 276.847656 89.394531 277.445312 89.964844 L 278.625 91.097656 C 279.121094 91.566406 279.613281 92.039062 280.097656 92.523438 L 280.460938 92.882812 L 270.824219 102.519531 L 271.148438 102.847656 C 293.589844 125.539062 305.949219 155.601562 305.949219 187.492188 C 305.949219 219.386719 293.589844 249.449219 271.148438 272.136719 Z M 306.726562 181.519531 C 306.710938 181.148438 306.679688 180.777344 306.652344 180.402344 L 306.554688 179.109375 C 306.480469 177.933594 306.410156 176.761719 306.296875 175.597656 C 306.25 175.117188 306.183594 174.632812 306.125 174.152344 L 305.917969 172.4375 C 305.816406 171.535156 305.714844 170.632812 305.578125 169.734375 C 305.507812 169.21875 305.417969 168.707031 305.324219 168.195312 L 305.023438 166.410156 C 304.886719 165.582031 304.753906 164.757812 304.589844 163.933594 C 304.488281 163.394531 304.359375 162.855469 304.234375 162.316406 L 303.847656 160.535156 C 303.679688 159.757812 303.511719 158.984375 303.324219 158.214844 C 303.1875 157.667969 303.039062 157.132812 302.890625 156.589844 L 302.453125 154.984375 C 302.234375 154.179688 302.027344 153.375 301.785156 152.578125 C 301.617188 152.019531 301.433594 151.46875 301.25 150.914062 L 300.695312 149.21875 C 300.46875 148.488281 300.230469 147.753906 299.976562 147.03125 C 299.773438 146.453125 299.550781 145.882812 299.328125 145.3125 L 298.757812 143.816406 C 298.476562 143.066406 298.199219 142.320312 297.898438 141.578125 C 297.667969 141.023438 297.425781 140.46875 297.179688 139.914062 L 296.507812 138.371094 C 296.203125 137.660156 295.890625 136.945312 295.558594 136.238281 C 295.308594 135.691406 295.035156 135.148438 294.757812 134.605469 L 294.054688 133.1875 C 293.699219 132.460938 293.34375 131.734375 292.96875 131.015625 C 292.671875 130.457031 292.359375 129.90625 292.050781 129.355469 L 291.300781 128.015625 C 290.914062 127.3125 290.523438 126.605469 290.117188 125.914062 C 289.800781 125.386719 289.472656 124.867188 289.148438 124.34375 L 288.25 122.90625 C 287.839844 122.25 287.433594 121.589844 287.007812 120.941406 C 286.671875 120.429688 286.316406 119.921875 285.957031 119.414062 L 285.03125 118.078125 C 284.585938 117.417969 284.128906 116.757812 283.65625 116.109375 C 283.285156 115.601562 282.894531 115.101562 282.511719 114.605469 L 281.542969 113.351562 C 281.058594 112.707031 280.570312 112.0625 280.054688 111.425781 C 279.652344 110.933594 279.242188 110.449219 278.824219 109.964844 L 277.761719 108.707031 C 277.253906 108.101562 276.742188 107.492188 276.210938 106.902344 C 275.761719 106.394531 275.289062 105.894531 274.820312 105.398438 L 273.65625 104.140625 C 273.269531 103.71875 272.886719 103.296875 272.484375 102.886719 L 272.132812 102.523438 L 281.78125 92.871094 L 281.460938 92.546875 C 279.882812 90.953125 278.277344 89.410156 276.640625 87.90625 C 276.359375 87.652344 274.691406 86.195312 274.691406 86.195312 C 273.675781 85.292969 272.667969 84.398438 271.632812 83.539062 C 271.246094 83.214844 270.851562 82.910156 270.460938 82.605469 L 268.960938 81.414062 C 268.132812 80.746094 267.300781 80.078125 266.453125 79.441406 C 265.992188 79.097656 265.53125 78.769531 265.058594 78.4375 L 263.507812 77.328125 C 262.710938 76.75 261.914062 76.167969 261.105469 75.621094 C 260.597656 75.273438 260.085938 74.949219 259.570312 74.625 L 257.839844 73.511719 C 257.101562 73.027344 256.347656 72.539062 255.589844 72.074219 C 255.039062 71.738281 254.476562 71.417969 253.917969 71.097656 L 252.136719 70.074219 C 251.402344 69.644531 250.675781 69.21875 249.9375 68.816406 C 249.34375 68.492188 248.738281 68.1875 248.128906 67.878906 L 246.300781 66.941406 C 245.582031 66.566406 244.863281 66.191406 244.132812 65.839844 C 243.511719 65.539062 242.875 65.253906 242.242188 64.972656 L 240.421875 64.148438 C 239.679688 63.8125 238.949219 63.46875 238.199219 63.15625 C 237.546875 62.878906 236.886719 62.621094 236.222656 62.363281 L 234.386719 61.636719 C 233.640625 61.339844 232.894531 61.039062 232.140625 60.761719 C 231.4375 60.503906 230.722656 60.265625 230.015625 60.027344 L 228.21875 59.421875 C 227.46875 59.164062 226.726562 58.902344 225.964844 58.667969 C 225.246094 58.441406 224.515625 58.238281 223.785156 58.03125 L 221.886719 57.488281 C 221.160156 57.277344 220.429688 57.066406 219.691406 56.875 C 218.964844 56.683594 218.238281 56.519531 217.503906 56.351562 L 215.570312 55.898438 C 214.820312 55.71875 214.066406 55.542969 213.308594 55.382812 C 212.550781 55.222656 211.785156 55.089844 211.015625 54.953125 L 209.230469 54.625 C 208.4375 54.480469 207.640625 54.328125 206.84375 54.203125 C 206.085938 54.082031 205.320312 53.984375 204.554688 53.886719 L 202.714844 53.640625 C 201.910156 53.53125 201.105469 53.421875 200.296875 53.332031 C 199.527344 53.25 198.757812 53.191406 197.984375 53.128906 L 196.125 52.972656 C 195.3125 52.902344 194.496094 52.828125 193.679688 52.78125 C 192.894531 52.734375 192.105469 52.710938 191.316406 52.683594 L 189.324219 52.609375 C 188.710938 52.582031 188.09375 52.550781 187.472656 52.542969 L 186.972656 52.535156 L 186.972656 41.8125 L 185.53125 41.789062 C 105.191406 41.789062 39.828125 107.148438 39.828125 187.492188 L 39.828125 188.027344 L 64.214844 187.953125 L 64.222656 188.464844 C 64.46875 220.761719 77.261719 251.054688 100.234375 273.769531 C 123.101562 296.378906 153.394531 308.832031 185.53125 308.832031 L 186 308.832031 L 186.046875 333.179688 L 186.511719 333.175781 C 225.316406 332.921875 261.730469 317.59375 289.039062 290.023438 L 289.363281 289.699219 L 272.132812 272.464844 L 272.484375 272.101562 C 272.875 271.699219 273.253906 271.285156 273.632812 270.871094 L 274.855469 269.554688 C 275.3125 269.070312 275.769531 268.582031 276.210938 268.085938 C 276.765625 267.464844 277.296875 266.832031 277.824219 266.199219 L 278.789062 265.0625 C 279.21875 264.5625 279.644531 264.066406 280.054688 263.558594 C 280.546875 262.949219 281.019531 262.328125 281.492188 261.710938 L 282.476562 260.429688 C 282.871094 259.914062 283.269531 259.398438 283.65625 258.875 C 284.121094 258.238281 284.5625 257.59375 285.011719 256.949219 L 285.921875 255.628906 C 286.289062 255.105469 286.65625 254.578125 287.007812 254.042969 C 287.433594 253.390625 287.847656 252.730469 288.257812 252.070312 L 289.15625 250.632812 C 289.480469 250.113281 289.800781 249.59375 290.117188 249.070312 C 290.496094 248.429688 290.859375 247.777344 291.214844 247.125 L 292.046875 245.636719 C 292.359375 245.082031 292.671875 244.527344 292.96875 243.96875 C 293.324219 243.289062 293.664062 242.601562 294 241.914062 L 294.777344 240.34375 C 295.046875 239.8125 295.3125 239.28125 295.558594 238.746094 C 295.890625 238.039062 296.203125 237.324219 296.507812 236.609375 L 297.171875 235.089844 C 297.421875 234.53125 297.667969 233.972656 297.898438 233.402344 C 298.183594 232.71875 298.4375 232.027344 298.699219 231.335938 L 299.347656 229.632812 C 299.5625 229.074219 299.777344 228.519531 299.976562 227.953125 C 300.234375 227.21875 300.472656 226.476562 300.707031 225.734375 L 301.238281 224.105469 C 301.425781 223.542969 301.617188 222.976562 301.785156 222.40625 C 301.996094 221.679688 302.199219 220.949219 302.394531 220.214844 L 302.882812 218.414062 C 303.03125 217.867188 303.1875 217.320312 303.324219 216.769531 C 303.511719 216.011719 303.679688 215.25 303.839844 214.484375 L 304.234375 212.6875 C 304.359375 212.144531 304.480469 211.601562 304.589844 211.046875 C 304.753906 210.242188 304.882812 209.429688 305.015625 208.617188 L 305.304688 206.910156 C 305.40625 206.359375 305.5 205.804688 305.578125 205.25 C 305.710938 204.371094 305.808594 203.488281 305.917969 202.605469 L 306.125 200.839844 C 306.183594 200.355469 306.25 199.875 306.296875 199.386719 C 306.410156 198.230469 306.480469 197.058594 306.554688 195.894531 C 306.554688 195.894531 306.710938 193.824219 306.726562 193.46875 C 306.820312 191.484375 306.867188 189.492188 306.867188 187.492188 C 306.867188 185.496094 306.820312 183.503906 306.726562 181.519531 " fill-opacity="1" fill-rule="nonzero"/><path fill="#00d7df" d="M 145.339844 291.023438 L 147.886719 288.476562 C 133.753906 283.257812 120.496094 275.011719 109.164062 263.675781 C 97.472656 251.992188 89.050781 238.257812 83.863281 223.628906 L 81.320312 226.175781 C 66.722656 186.738281 75.210938 140.617188 106.84375 108.984375 C 138.472656 77.351562 184.59375 68.863281 224.027344 83.460938 L 221.484375 86.007812 C 236.117188 91.195312 249.847656 99.621094 261.53125 111.308594 C 272.867188 122.640625 281.113281 135.898438 286.332031 150.027344 L 288.878906 147.480469 C 304.171875 187.207031 295.84375 234.011719 263.855469 266.003906 C 231.871094 297.992188 185.0625 306.3125 145.339844 291.023438 Z M 265.398438 107.441406 C 221.257812 63.300781 149.4375 63.300781 105.296875 107.441406 C 61.160156 151.582031 61.160156 223.402344 105.300781 267.542969 C 149.441406 311.6875 221.265625 311.6875 265.398438 267.542969 C 309.539062 223.40625 309.539062 151.582031 265.398438 107.441406 " fill-opacity="1" fill-rule="nonzero"/><path fill="#00d7df" d="M 87.011719 187.492188 C 87.011719 133.269531 131.128906 89.15625 185.351562 89.15625 C 239.570312 89.15625 283.691406 133.269531 283.691406 187.492188 C 283.691406 241.71875 239.570312 285.832031 185.351562 285.832031 C 131.128906 285.832031 87.011719 241.71875 87.011719 187.492188 Z M 256.515625 258.660156 C 267.097656 248.074219 274.804688 235.691406 279.675781 222.492188 L 281.503906 224.320312 C 285.90625 212.875 288.335938 200.464844 288.335938 187.492188 C 288.335938 130.707031 242.132812 84.507812 185.351562 84.507812 C 172.375 84.507812 159.972656 86.941406 148.523438 91.339844 L 150.351562 93.164062 C 137.15625 98.039062 124.769531 105.742188 114.1875 116.328125 C 103.265625 127.246094 95.398438 140.074219 90.550781 153.742188 L 88.710938 151.894531 C 84.605469 162.996094 82.367188 174.988281 82.367188 187.492188 C 82.367188 244.28125 128.566406 290.480469 185.351562 290.480469 C 197.863281 290.480469 209.847656 288.234375 220.949219 284.132812 L 219.101562 282.289062 C 232.769531 277.449219 245.597656 269.578125 256.515625 258.660156 " fill-opacity="1" fill-rule="nonzero"/></svg>